<?xml version="1.0" encoding="UTF-8"?>
<svg width="240px" height="33px" viewBox="0 0 240 33" version="1.1" xmlns="http://www.w3.org/2000/svg" xmlns:xlink="http://www.w3.org/1999/xlink">
    <title>broadcom-logo</title>
    <g id="Page-1" stroke="none" stroke-width="1" fill="none" fill-rule="evenodd">
        <g id="broadcom-logo" transform="translate(0.2832, 0.2617)" fill="#FFFFFF" fill-rule="nonzero">
            <path d="M237.036797,8.828282 C235.976797,8.828282 235.106797,7.968282 235.106797,6.908282 C235.106797,5.848282 235.976797,4.978282 237.036797,4.978282 C238.096797,4.978282 238.966797,5.848282 238.966797,6.908282 C238.966797,7.968282 238.096797,8.828282 237.036797,8.828282 M237.036797,4.508282 C235.716797,4.508282 234.636797,5.588282 234.636797,6.908282 C234.636797,8.228282 235.716797,9.308282 237.036797,9.308282 C238.356797,9.308282 239.436797,8.228282 239.436797,6.908282 C239.436797,5.588282 238.356797,4.508282 237.036797,4.508282" id="path4"></path>
            <path d="M237.196797,6.808282 L236.686797,6.818282 L236.676797,6.198282 L237.186797,6.198282 C237.376797,6.188282 237.526797,6.308282 237.526797,6.498282 C237.536797,6.688282 237.386797,6.808282 237.196797,6.808282 M238.026797,6.488282 C238.016797,6.068282 237.726797,5.768282 237.256797,5.768282 L236.186797,5.788282 L236.216797,8.048282 L236.706797,8.048282 L236.696797,7.238282 L237.046797,7.238282 L237.506797,8.038282 L238.056797,8.028282 L237.536797,7.168282 C237.776797,7.108282 238.026797,6.888282 238.026797,6.488282" id="path6"></path>
            <path d="M51.550897,22.918782 L45.551897,22.918782 L45.551897,9.084782 L51.386897,9.084782 C52.960897,9.084782 53.943897,10.100782 53.943897,11.477782 C53.943897,12.854782 52.960897,13.837782 51.386897,13.837782 L44.716797,13.837782 L44.716797,17.837782 L51.550897,17.837782 C53.386897,17.837782 54.369897,19.017782 54.369897,20.393782 C54.369897,21.967782 53.320897,22.918782 51.550897,22.918782 M54.926897,15.673782 C56.992897,15.247782 58.697897,13.411782 58.697897,10.658782 C58.697897,7.740782 56.566897,5.085782 52.402897,5.085782 L40.896897,5.085782 L40.896897,26.950782 L52.763897,26.950782 C56.926897,26.950782 59.122897,24.327782 59.122897,21.049782 C59.122897,18.295782 57.254897,16.034782 54.926897,15.673782" id="path10"></path>
            <path d="M72.749397,15.083582 L67.716797,15.083582 L67.716797,19.181582 L71.274397,19.181582 L75.568397,26.950582 L80.911397,26.950582 L75.994397,18.623582 C78.355397,18.066582 80.780397,16.001582 80.780397,12.133582 M80.780397,12.133582 C80.780397,8.068582 77.994397,5.085582 73.437397,5.085582 L63.209397,5.085582 L63.209397,26.950582 L67.864397,26.950582 L67.864397,9.183582 L72.749397,9.183582 C74.618397,9.183582 76.027397,10.297582 76.027397,12.133582 C76.027397,13.969582 74.618397,15.083582 72.749397,15.083582" id="path12"></path>
            <path d="M116.169997,19.148782 L119.578997,9.740782 L122.988997,19.148782 L116.169997,19.148782 Z M116.661997,5.085782 L108.203997,26.950782 L113.513997,26.950782 L114.890997,23.246782 L124.266997,23.246782 L125.610997,26.950782 L130.921997,26.950782 L122.496997,5.085782 L116.661997,5.085782 Z" id="path14"></path>
            <path d="M143.565897,22.852882 L139.598897,22.852882 L139.598897,9.182882 L143.565897,9.182882 C148.056897,9.182882 150.416897,12.165882 150.416897,16.034882 C150.416897,19.738882 147.892897,22.852882 143.565897,22.852882 M143.565897,5.085882 L134.943897,5.085882 L134.943897,26.950882 L143.565897,26.950882 C150.416897,26.950882 155.169897,22.623882 155.169897,16.034882 C155.169897,9.445882 150.416897,5.085882 143.565897,5.085882" id="path16"></path>
            <path d="M225.692797,5.081382 L219.958797,14.351382 L214.224797,5.081382 L209.078797,5.081382 L209.078797,26.950382 L213.734797,26.950382 L213.734797,12.657382 L218.746797,20.279382 C219.320797,21.150382 220.597797,21.150382 221.170797,20.279382 L226.183797,12.657382 L226.183797,26.950382 L230.839797,26.950382 L230.839797,5.081382 L225.692797,5.081382 Z" id="path18"></path>
            <path d="M95.542097,23.082382 C91.671097,23.082382 88.534097,19.944382 88.534097,16.074382 C88.534097,12.203382 91.671097,9.065382 95.542097,9.065382 C99.412097,9.065382 102.550097,12.203382 102.550097,16.074382 C102.550097,19.944382 99.412097,23.082382 95.542097,23.082382 M95.542097,4.546382 C89.175097,4.546382 84.014097,9.707382 84.014097,16.074382 C84.014097,22.440382 89.175097,27.601382 95.542097,27.601382 C101.908097,27.601382 107.070097,22.440382 107.070097,16.074382 C107.070097,9.707382 101.908097,4.546382 95.542097,4.546382" id="path20"></path>
            <path d="M176.120297,19.465182 C174.925297,21.621182 172.628297,23.082182 169.988297,23.082182 C166.118297,23.082182 162.980297,19.944182 162.980297,16.074182 C162.980297,12.203182 166.118297,9.066182 169.988297,9.066182 C172.606297,9.066182 174.885297,10.504182 176.088297,12.631182 L179.358297,9.362182 C177.266297,6.447182 173.850297,4.546182 169.988297,4.546182 C163.621297,4.546182 158.461297,9.707182 158.461297,16.074182 C158.461297,22.440182 163.621297,27.602182 169.988297,27.602182 C173.871297,27.602182 177.304297,25.680182 179.392297,22.737182 L176.120297,19.465182 Z" id="path22"></path>
            <path d="M194.260297,23.082382 C190.389297,23.082382 187.252297,19.944382 187.252297,16.074382 C187.252297,12.203382 190.389297,9.065382 194.260297,9.065382 C198.130297,9.065382 201.268297,12.203382 201.268297,16.074382 C201.268297,19.944382 198.130297,23.082382 194.260297,23.082382 M194.260297,4.546382 C187.893297,4.546382 182.732297,9.707382 182.732297,16.074382 C182.732297,22.440382 187.893297,27.601382 194.260297,27.601382 C200.626297,27.601382 205.788297,22.440382 205.788297,16.074382 C205.788297,9.707382 200.626297,4.546382 194.260297,4.546382" id="path20"></path>
            <path d="M16.236328,0 C25.2034043,0 32.472656,7.26881468 32.472656,16.235352 C32.472656,25.2018893 25.2034043,32.470704 16.236328,32.470704 C7.26925165,32.470704 0,25.2018893 0,16.235352 C0,7.26881468 7.26925165,0 16.236328,0 Z M16.236097,7.028482 C16.144097,7.028482 16.018097,7.046482 16.018097,7.046482 C15.298097,7.132482 14.789097,7.651482 14.511097,8.600482 C14.352097,9.143482 14.199097,9.942482 13.920097,11.425482 C13.445097,13.948482 12.357097,19.042482 11.911097,21.115482 C11.625097,22.444482 10.949097,22.628482 10.262097,22.628482 C9.542097,22.628482 8.793097,22.156482 7.999097,21.658482 C7.813097,21.541482 7.191097,21.162482 7.191097,21.162482 C5.488097,20.129482 3.787097,19.881482 1.931097,20.621482 C1.530097,20.781482 1.1351338,20.960665 0.7591338,21.141665 C1.0161338,21.947665 1.3360655,22.740915 1.7090655,23.485915 C2.1200655,23.283915 2.551097,23.083482 2.991097,22.953482 C3.625097,22.766482 4.275097,22.756482 4.905097,22.967482 C5.517097,23.172482 6.062097,23.535482 6.605097,23.876482 C7.628097,24.519482 8.787097,25.248482 10.262097,25.248482 C12.448097,25.248482 13.982097,23.943482 14.472097,21.667482 C14.852097,19.903482 15.694097,15.965482 16.235097,13.249482 L16.2434632,13.2896417 C16.3039911,13.5801706 16.6838258,15.4030177 17.0838423,17.315183 L17.1932134,17.837813 C17.5214792,19.4058415 17.8450515,20.9458456 18.000097,21.667482 C18.490097,23.943482 20.025097,25.248482 22.211097,25.248482 C23.686097,25.248482 24.845097,24.519482 25.868097,23.876482 C26.411097,23.535482 26.956097,23.172482 27.568097,22.967482 C28.197097,22.756482 28.848097,22.766482 29.482097,22.953482 C29.922097,23.083482 30.352484,23.284129 30.763484,23.486129 C31.137484,22.741129 31.456573,21.947508 31.713573,21.141508 C31.337573,20.960508 30.943097,20.781482 30.542097,20.621482 C28.685097,19.881482 26.985097,20.129482 25.281097,21.162482 C25.281097,21.162482 24.660097,21.541482 24.474097,21.658482 C23.680097,22.156482 22.931097,22.628482 22.211097,22.628482 C21.524097,22.628482 20.848097,22.444482 20.562097,21.115482 C20.116097,19.042482 19.028097,13.948482 18.553097,11.425482 C18.274097,9.942482 18.121097,9.143482 17.962097,8.600482 C17.682097,7.646482 17.170097,7.127482 16.443097,7.044482 C16.443097,7.044482 16.329097,7.028482 16.236097,7.028482 Z" id="Combined-Shape"></path>
        </g>
    </g>
</svg>