<?xml version="1.0" encoding="UTF-8"?>
<svg width="90px" height="22px" viewBox="0 0 90 22" version="1.1" xmlns="http://www.w3.org/2000/svg" xmlns:xlink="http://www.w3.org/1999/xlink">
    <title>checkr-logo</title>
    <g id="Page-1" stroke="none" stroke-width="1" fill="none" fill-rule="evenodd">
        <g id="checkr-logo" fill="#FFFFFF" fill-rule="nonzero">
            <path d="M40.1212,5.04346 C35.613,5.04346 32.2576,8.48124 32.2576,13.0512 C32.2576,17.6006 35.6542,21.059 40.1212,21.059 C43.2503,21.059 45.8852,19.3916 47.2027,16.7155 L43.312,15.6862 C42.6739,16.736 41.5211,17.3948 40.1212,17.3948 C38.1244,17.3948 36.7658,16.2626 36.4158,14.1834 L47.9026,14.1834 C47.9438,13.7923 47.9849,13.3806 47.9849,12.9895 C47.9849,8.64593 44.7942,5.04346 40.1212,5.04346 Z M36.5188,11.4044 C36.9922,9.61345 38.2891,8.543 40.1212,8.543 C41.9534,8.543 43.2914,9.55169 43.8678,11.4044 L36.5188,11.4044 Z" id="Shape"></path>
            <path d="M16.7155,20.6473 L20.812,20.6473 L20.812,12.6807 C20.812,10.2104 22.1707,8.72827 24.2087,8.72827 C26.0614,8.72827 26.8642,9.86048 26.8642,12.1249 L26.8642,20.6473 L30.9607,20.6473 L30.9607,11.425 C30.9607,7.5549 28.8198,5.10522 25.382,5.10522 C23.5705,5.10522 21.9442,5.78454 20.7915,6.87557 L20.7915,0 L16.7155,0" id="Path"></path>
            <polygon id="Path" points="79.1102 5.47576 74.3755 5.47576 69.8261 12.2072 69.8261 0 65.7296 0 65.7296 20.6473 69.8261 20.6473 69.8261 13.3806 74.6843 20.6473 79.6454 20.6473 73.9638 12.7013"></polygon>
            <path d="M88.6414,5.39343 C86.6857,5.39343 85.3271,5.99041 84.2361,7.32847 L83.5156,5.47578 L80.8806,5.47578 L80.8806,20.6473 L84.9977,20.6473 L84.9977,12.7631 C84.9977,10.2928 85.9035,9.26352 88.2297,9.26352 L90,9.26352 L90,5.39343 L88.6414,5.39343 Z" id="Path"></path>
            <path d="M8.06953,17.2301 C5.86688,17.2301 4.17887,15.398 4.17887,13.0512 C4.17887,10.7045 5.8463,8.91354 8.06953,8.91354 C9.61345,8.91354 10.9927,9.71638 11.672,11.178 L15.4186,9.88106 C14.2452,6.91674 11.4867,5.04346 8.11071,5.04346 C3.47896,5.04346 0,8.46066 0,13.0101 C0,17.5595 3.49954,21.0796 8.04895,21.0796 C11.4867,21.0796 14.3275,19.124 15.4597,16.0567 L11.6514,14.7393 C11.075,16.2832 9.65462,17.2301 8.06953,17.2301 Z" id="Path"></path>
            <path d="M57.0632,17.2301 C54.8605,17.2301 53.1725,15.398 53.1725,13.0512 C53.1725,10.7045 54.8399,8.91354 57.0632,8.91354 C58.6071,8.91354 59.9863,9.71638 60.6656,11.178 L64.4122,9.88106 C63.2388,6.91674 60.4804,5.04346 57.1043,5.04346 C52.4932,5.04346 49.0142,8.46066 49.0142,13.0101 C49.0142,17.5595 52.5138,21.0796 57.0632,21.0796 C60.501,21.0796 63.3418,19.124 64.474,16.0567 L60.6656,14.7393 C60.0892,16.2832 58.6483,17.2301 57.0632,17.2301 Z" id="Path"></path>
        </g>
    </g>
</svg>